<svg width="24" height="24" viewBox="0 0 24 24" fill="none" xmlns="http://www.w3.org/2000/svg">
<path d="M17.3333 3.53333C15.7667 2.56667 13.9667 2 12 2V3.53333H17.3333Z" fill="#ED4C5C"/>
<path d="M12 5.06665H19.2C18.6333 4.49999 18 3.96666 17.3333 3.53333H12V5.06665Z" fill="white"/>
<path d="M12 6.59998H20.4333C20.0666 6.03332 19.6666 5.53332 19.2333 5.06665H12V6.59998Z" fill="#ED4C5C"/>
<path d="M12 8.13331H21.2333C21 7.59997 20.7333 7.06664 20.4333 6.59998H12V8.13331Z" fill="white"/>
<path d="M12 9.66663H21.7333C21.6 9.1333 21.4333 8.6333 21.2333 8.1333H12V9.66663Z" fill="#ED4C5C"/>
<path d="M12 11.2333H21.9666C21.9333 10.6999 21.8333 10.2 21.7333 9.69995H12V11.2333Z" fill="white"/>
<path d="M21.9666 11.2333H12V11.9999H2C2 12.2666 2 12.4999 2.03333 12.7666H21.9666C22 12.4999 22 12.2666 22 11.9999C22 11.7333 22 11.4666 21.9666 11.2333Z" fill="#ED4C5C"/>
<path d="M2.26666 14.3001H21.7333C21.8666 13.8001 21.9333 13.3001 21.9666 12.7667H2.03333C2.06666 13.2667 2.13332 13.8001 2.26666 14.3001Z" fill="white"/>
<path d="M2.76672 15.8334H21.2334C21.4333 15.3334 21.6 14.8334 21.7333 14.3H2.26672C2.40006 14.8334 2.56672 15.3334 2.76672 15.8334Z" fill="#ED4C5C"/>
<path d="M3.56672 17.3666H20.4334C20.7334 16.8666 21 16.3666 21.2334 15.8333H2.76672C3.00006 16.3666 3.26672 16.8666 3.56672 17.3666Z" fill="white"/>
<path d="M4.76665 18.8999H19.2333C19.6666 18.4332 20.0999 17.8999 20.4333 17.3666H3.56665C3.89998 17.9332 4.33332 18.4332 4.76665 18.8999Z" fill="#ED4C5C"/>
<path d="M6.63339 20.4332H17.3667C18.0667 19.9999 18.6667 19.4666 19.2334 18.8999H4.76672C5.33339 19.4999 5.96672 19.9999 6.63339 20.4332Z" fill="white"/>
<path d="M12 22C13.9666 22 15.7999 21.4333 17.3666 20.4333H6.6333C8.19996 21.4333 10.0333 22 12 22Z" fill="#ED4C5C"/>
<path d="M6.66666 3.53333C5.96666 3.96666 5.33333 4.49999 4.76666 5.06666C4.29999 5.53333 3.9 6.06666 3.56666 6.59999C3.26666 7.09999 2.96666 7.59999 2.76667 8.13332C2.56667 8.63332 2.4 9.13332 2.26667 9.66665C2.13333 10.1666 2.06667 10.6666 2.03333 11.2C2 11.4666 2 11.7333 2 12H12V2C10.0333 2 8.23332 2.56667 6.66666 3.53333Z" fill="#428BC1"/>
<path d="M9.66667 2.33337L9.83333 2.83337H10.3333L9.93333 3.16671L10.0667 3.6667L9.66667 3.36671L9.26667 3.6667L9.4 3.16671L9 2.83337H9.5L9.66667 2.33337Z" fill="white"/>
<path d="M11 4.33337L11.1667 4.83337H11.6667L11.2667 5.16671L11.4 5.6667L11 5.36671L10.6 5.6667L10.7334 5.16671L10.3334 4.83337H10.8334L11 4.33337Z" fill="white"/>
<path d="M8.33329 4.33337L8.49996 4.83337H8.99996L8.59996 5.16671L8.73329 5.6667L8.33329 5.36671L7.93329 5.6667L8.06663 5.16671L7.66663 4.83337H8.16662L8.33329 4.33337Z" fill="white"/>
<path d="M9.66667 6.33337L9.83333 6.83337H10.3333L9.93333 7.16671L10.0667 7.6667L9.66667 7.36671L9.26667 7.6667L9.4 7.16671L9 6.83337H9.5L9.66667 6.33337Z" fill="white"/>
<path d="M7.00004 6.33337L7.16671 6.83337H7.6667L7.26671 7.16671L7.40004 7.6667L7.00004 7.36671L6.60004 7.6667L6.73337 7.16671L6.33337 6.83337H6.83337L7.00004 6.33337Z" fill="white"/>
<path d="M4.33329 6.33337L4.49996 6.83337H4.99996L4.59996 7.16671L4.73329 7.6667L4.33329 7.36671L3.93329 7.6667L4.06663 7.16671L3.66663 6.83337H4.16662L4.33329 6.33337Z" fill="white"/>
<path d="M11 8.33337L11.1667 8.83337H11.6667L11.2667 9.16671L11.4 9.6667L11 9.36671L10.6 9.6667L10.7334 9.16671L10.3334 8.83337H10.8334L11 8.33337Z" fill="white"/>
<path d="M8.33329 8.33337L8.49996 8.83337H8.99996L8.59996 9.16671L8.73329 9.6667L8.33329 9.36671L7.93329 9.6667L8.06663 9.16671L7.66663 8.83337H8.16662L8.33329 8.33337Z" fill="white"/>
<path d="M5.66667 8.33337L5.83333 8.83337H6.33333L5.93333 9.16671L6.06666 9.6667L5.66667 9.36671L5.26667 9.6667L5.4 9.16671L5 8.83337H5.5L5.66667 8.33337Z" fill="white"/>
<path d="M9.66667 10.3334L9.83333 10.8334H10.3333L9.93333 11.1667L10.0667 11.6667L9.66667 11.3667L9.26667 11.6667L9.4 11.1667L9 10.8334H9.5L9.66667 10.3334Z" fill="white"/>
<path d="M7.00004 10.3334L7.16671 10.8334H7.6667L7.26671 11.1667L7.40004 11.6667L7.00004 11.3667L6.60004 11.6667L6.73337 11.1667L6.33337 10.8334H6.83337L7.00004 10.3334Z" fill="white"/>
<path d="M4.33329 10.3334L4.49996 10.8334H4.99996L4.59996 11.1667L4.73329 11.6667L4.33329 11.3667L3.93329 11.6667L4.06663 11.1667L3.66663 10.8334H4.16662L4.33329 10.3334Z" fill="white"/>
<path d="M5.26666 5.6667L5.66666 5.36671L6.06666 5.6667L5.89999 5.16671L6.29999 4.83337H5.79999L5.66666 4.33337L5.49999 4.83337H5.03333L5.43332 5.13337L5.26666 5.6667Z" fill="white"/>
<path d="M2.60001 9.6667L3.00001 9.36671L3.40001 9.6667L3.23334 9.16671L3.63334 8.83337H3.16667L3.00001 8.33337L2.83334 8.83337H2.50001C2.50001 8.86671 2.46667 8.90004 2.46667 8.93337L2.73334 9.13337L2.60001 9.6667Z" fill="white"/>
</svg>
